# xmcd
#
# Track frame offsets:
#	150
#	18301
#	39165
#	62789
#	95017
#	118209
#	144382
#	164862
#	196718
#	215642
#	240974
#	257600
#
# Disc length: 3759 seconds
#
# Revision: 0
# Processed by: cddbd v1.5.2PL0 Copyright (c) Steve Scherf et al.
# Submitted via: dBpowerAMP V4.0
#
DISCID=a60ead0c
DTITLE=Blues Jamboree - Grab a root an' growl
DYEAR=2014
DGENRE=Blues
TTITLE0=Walk right in
TTITLE1=Keep it clean
TTITLE2=You've got to move
TTITLE3=Grab a root an' growl
TTITLE4=Know you rider
TTITLE5=Gin house blues
TTITLE6=Divin' duck blues
TTITLE7=You can't get that stuff no more
TTITLE8=How long how long blues
TTITLE9=Soul of a man
TTITLE10=Blood of jesus
TTITLE11=Buckets of rain
EXTD=
EXTT0=
EXTT1=
EXTT2=
EXTT3=
EXTT4=
EXTT5=
EXTT6=
EXTT7=
EXTT8=
EXTT9=
EXTT10=
EXTT11=
PLAYORDER=
